<svg width="624" height="197" xmlns="http://www.w3.org/2000/svg" xmlns:xlink="http://www.w3.org/1999/xlink" xml:space="preserve" overflow="hidden"><g><g><path d="M0.141613-0.109633 19.3532 24.7059 19.07 24.9252-0.141613 0.109633ZM20.4724 22.9335 21.4043 27.6478 17.0737 25.5647Z" fill="#000000" fill-rule="nonzero" fill-opacity="1" transform="matrix(-1.00123 0 0 1 233.913 22.7445)"/><text fill="#000000" fill-opacity="1" font-family="Calibri,Calibri_MSFontService,sans-serif" font-style="normal" font-variant="normal" font-weight="400" font-stretch="normal" font-size="36" text-anchor="start" direction="ltr" writing-mode="lr-tb" unicode-bidi="normal" text-decoration="none" transform="matrix(0.358621 0 0 0.358182 192.431 16)">Error Threshold</text><path d="M0.0194184-0.178035 11.6719 1.09291 11.6331 1.44898-0.0194184 0.178035ZM11.1734-0.94315 15.2132 1.65931 10.7073 3.32969Z" fill="#000000" fill-rule="nonzero" fill-opacity="1" transform="matrix(-1.00123 0 0 1 187.549 12.3573)"/><path d="M0 0 154.786 0 154.786 154.735 154.735 154.735" stroke="#000000" stroke-width="2.14909" stroke-linecap="butt" stroke-linejoin="miter" stroke-miterlimit="8" stroke-opacity="1" fill="none" fill-rule="evenodd" transform="matrix(1.83922e-16 1 1.00123 -1.83697e-16 54.869 14.6855)"/><path d="M0 0 137.155 137.155" stroke="#000000" stroke-width="1.61182" stroke-linecap="butt" stroke-linejoin="miter" stroke-miterlimit="8" stroke-dasharray="12.8945 4.83545" stroke-opacity="1" fill="none" fill-rule="evenodd" transform="matrix(1.00123 0 0 -1 55.0483 169.929)"/><path d="M165.122 256.637C165.122 254.956 166.485 253.593 168.166 253.593 169.848 253.593 171.211 254.956 171.211 256.637 171.211 258.319 169.848 259.682 168.166 259.682 166.485 259.682 165.122 258.319 165.122 256.637Z" fill="#8BC145" fill-rule="evenodd" fill-opacity="1" transform="matrix(1.00123 0 0 1 -32.9931 -151.153)"/><path d="M184.822 239.445C184.822 237.763 186.185 236.4 187.866 236.4 189.548 236.4 190.911 237.763 190.911 239.445 190.911 241.126 189.548 242.489 187.866 242.489 186.185 242.489 184.822 241.126 184.822 239.445Z" fill="#8BC145" fill-rule="evenodd" fill-opacity="1" transform="matrix(1.00123 0 0 1 -32.9931 -151.153)"/><path d="M129.662 263.801C129.662 262.12 131.025 260.756 132.706 260.756 134.388 260.756 135.751 262.12 135.751 263.801 135.751 265.482 134.388 266.845 132.706 266.845 131.025 266.845 129.662 265.482 129.662 263.801Z" fill="#8BC145" fill-rule="evenodd" fill-opacity="1" transform="matrix(1.00123 0 0 1 -32.9931 -151.153)"/><path d="M183.389 268.457C183.389 266.776 184.752 265.413 186.434 265.413 188.115 265.413 189.478 266.776 189.478 268.457 189.478 270.139 188.115 271.502 186.434 271.502 184.752 271.502 183.389 270.139 183.389 268.457Z" fill="#FF0000" fill-rule="evenodd" fill-opacity="1" transform="matrix(1.00123 0 0 1 -32.9931 -151.153)"/><path d="M175.509 208.283C175.509 206.601 176.872 205.238 178.554 205.238 180.235 205.238 181.598 206.601 181.598 208.283 181.598 209.964 180.235 211.327 178.554 211.327 176.872 211.327 175.509 209.964 175.509 208.283Z" fill="#8BC145" fill-rule="evenodd" fill-opacity="1" transform="matrix(1.00123 0 0 1 -32.9931 -151.153)"/><path d="M143.273 246.966C143.273 245.285 144.636 243.922 146.317 243.922 147.999 243.922 149.362 245.285 149.362 246.966 149.362 248.648 147.999 250.011 146.317 250.011 144.636 250.011 143.273 248.648 143.273 246.966Z" fill="#8BC145" fill-rule="evenodd" fill-opacity="1" transform="matrix(1.00123 0 0 1 -32.9931 -151.153)"/><path d="M169.42 234.43C169.42 232.749 170.783 231.385 172.465 231.385 174.146 231.385 175.509 232.749 175.509 234.43 175.509 236.111 174.146 237.475 172.465 237.475 170.783 237.475 169.42 236.111 169.42 234.43Z" fill="#8BC145" fill-rule="evenodd" fill-opacity="1" transform="matrix(1.00123 0 0 1 -32.9931 -151.153)"/><path d="M129.662 216.521C129.662 214.84 131.025 213.476 132.706 213.476 134.388 213.476 135.751 214.84 135.751 216.521 135.751 218.202 134.388 219.565 132.706 219.565 131.025 219.565 129.662 218.202 129.662 216.521Z" fill="#FF0000" fill-rule="evenodd" fill-opacity="1" transform="matrix(1.00123 0 0 1 -32.9931 -151.153)"/><path d="M157.958 237.295C157.958 235.614 159.321 234.251 161.003 234.251 162.684 234.251 164.047 235.614 164.047 237.295 164.047 238.977 162.684 240.34 161.003 240.34 159.321 240.34 157.958 238.977 157.958 237.295Z" fill="#8BC145" fill-rule="evenodd" fill-opacity="1" transform="matrix(1.00123 0 0 1 -32.9931 -151.153)"/><path d="M147.929 264.875C147.929 263.194 149.292 261.831 150.974 261.831 152.655 261.831 154.018 263.194 154.018 264.875 154.018 266.557 152.655 267.92 150.974 267.92 149.292 267.92 147.929 266.557 147.929 264.875Z" fill="#8BC145" fill-rule="evenodd" fill-opacity="1" transform="matrix(1.00123 0 0 1 -32.9931 -151.153)"/><path d="M0 0 114.315 114.315" stroke="#000000" stroke-width="1.07455" stroke-linecap="butt" stroke-linejoin="miter" stroke-miterlimit="8" stroke-dasharray="1.07455 1.07455" stroke-opacity="1" fill="none" fill-rule="evenodd" transform="matrix(1.00123 0 0 -1 55.0483 130.97)"/><path d="M0 0 116.154 116.154" stroke="#000000" stroke-width="1.07455" stroke-linecap="butt" stroke-linejoin="miter" stroke-miterlimit="8" stroke-dasharray="1.07455 1.07455" stroke-opacity="1" fill="none" fill-rule="evenodd" transform="matrix(1.00123 0 0 -1 94.1379 170.777)"/><text fill="#000000" fill-opacity="1" font-family="Cambria Math,Cambria Math_MSFontService,sans-serif" font-style="normal" font-variant="normal" font-weight="400" font-stretch="normal" font-size="36" text-anchor="start" direction="ltr" writing-mode="lr-tb" unicode-bidi="normal" text-decoration="none" transform="matrix(0.358621 0 0 0.358182 130.826 189)">ğ‘‡</text><text fill="#000000" fill-opacity="1" font-family="Cambria Math,Cambria Math_MSFontService,sans-serif" font-style="normal" font-variant="normal" font-weight="400" font-stretch="normal" font-size="26" text-anchor="start" direction="ltr" writing-mode="lr-tb" unicode-bidi="normal" text-decoration="none" transform="matrix(0.358621 0 0 0.358182 136.772 192)">ğ‘š</text><text fill="#000000" fill-opacity="1" font-family="Cambria Math,Cambria Math_MSFontService,sans-serif" font-style="normal" font-variant="normal" font-weight="400" font-stretch="normal" font-size="26" text-anchor="start" direction="ltr" writing-mode="lr-tb" unicode-bidi="normal" text-decoration="none" transform="matrix(0.358621 0 0 0.358182 139.229 185)">ğ‘£ğ‘ğ‘™</text><text fill="#000000" fill-opacity="1" font-family="Cambria Math,Cambria Math_MSFontService,sans-serif" font-style="normal" font-variant="normal" font-weight="400" font-stretch="normal" font-size="36" text-anchor="start" direction="ltr" writing-mode="lr-tb" unicode-bidi="normal" text-decoration="none" transform="matrix(0.358621 0 0 0.358182 7.14337 90)">ğ‘‡</text><text fill="#000000" fill-opacity="1" font-family="Cambria Math,Cambria Math_MSFontService,sans-serif" font-style="normal" font-variant="normal" font-weight="400" font-stretch="normal" font-size="26" text-anchor="start" direction="ltr" writing-mode="lr-tb" unicode-bidi="normal" text-decoration="none" transform="matrix(0.358621 0 0 0.358182 13.4658 93)">ğ‘š</text><text fill="#000000" fill-opacity="1" font-family="Cambria Math,Cambria Math_MSFontService,sans-serif" font-style="normal" font-variant="normal" font-weight="400" font-stretch="normal" font-size="26" text-anchor="start" direction="ltr" writing-mode="lr-tb" unicode-bidi="normal" text-decoration="none" transform="matrix(0.358621 0 0 0.358182 22.4134 93)">,</text><text fill="#000000" fill-opacity="1" font-family="Cambria Math,Cambria Math_MSFontService,sans-serif" font-style="normal" font-variant="normal" font-weight="400" font-stretch="normal" font-size="26" text-anchor="start" direction="ltr" writing-mode="lr-tb" unicode-bidi="normal" text-decoration="none" transform="matrix(0.358621 0 0 0.358182 24.3858 93)">ğ‘ğ‘Ÿğ‘’ğ‘‘</text><text fill="#000000" fill-opacity="1" font-family="Cambria Math,Cambria Math_MSFontService,sans-serif" font-style="normal" font-variant="normal" font-weight="400" font-stretch="normal" font-size="26" text-anchor="start" direction="ltr" writing-mode="lr-tb" unicode-bidi="normal" text-decoration="none" transform="matrix(0.358621 0 0 0.358182 15.5458 85)">ğ‘£ğ‘ğ‘™</text><path d="M251.444 216.521C251.444 214.84 252.807 213.476 254.488 213.476 256.169 213.476 257.533 214.84 257.533 216.521 257.533 218.202 256.169 219.565 254.488 219.565 252.807 219.565 251.444 218.202 251.444 216.521Z" fill="#FF0000" fill-rule="evenodd" fill-opacity="1" transform="matrix(1.00123 0 0 1 -32.9931 -151.153)"/><path d="M251.802 230.848C251.802 229.167 253.165 227.804 254.846 227.804 256.528 227.804 257.891 229.167 257.891 230.848 257.891 232.529 256.528 233.893 254.846 233.893 253.165 233.893 251.802 232.529 251.802 230.848Z" fill="#8BC145" fill-rule="evenodd" fill-opacity="1" transform="matrix(1.00123 0 0 1 -32.9931 -151.153)"/><text fill="#000000" fill-opacity="1" font-family="Calibri,Calibri_MSFontService,sans-serif" font-style="normal" font-variant="normal" font-weight="400" font-stretch="normal" font-size="36" text-anchor="start" direction="ltr" writing-mode="lr-tb" unicode-bidi="normal" text-decoration="none" transform="matrix(0.358621 0 0 0.358182 229.538 70)">Outlier</text><text fill="#000000" fill-opacity="1" font-family="Calibri,Calibri_MSFontService,sans-serif" font-style="normal" font-variant="normal" font-weight="400" font-stretch="normal" font-size="36" text-anchor="start" direction="ltr" writing-mode="lr-tb" unicode-bidi="normal" text-decoration="none" transform="matrix(0.358621 0 0 0.358182 229.538 83)">Valid</text><path d="M0.141613-0.109633 19.3532 24.7059 19.07 24.9252-0.141613 0.109633ZM20.4724 22.9335 21.4043 27.6478 17.0737 25.5647Z" fill="#000000" fill-rule="nonzero" fill-opacity="1" transform="matrix(-1.00123 0 0 1 529.417 23.4609)"/><text fill="#000000" fill-opacity="1" font-family="Calibri,Calibri_MSFontService,sans-serif" font-style="normal" font-variant="normal" font-weight="400" font-stretch="normal" font-size="36" text-anchor="start" direction="ltr" writing-mode="lr-tb" unicode-bidi="normal" text-decoration="none" transform="matrix(0.358621 0 0 0.358182 488.061 17)">Error Threshold</text><path d="M0.0194184-0.178035 11.6719 1.09291 11.6331 1.44898-0.0194184 0.178035ZM11.1734-0.94315 15.2132 1.65931 10.7073 3.32969Z" fill="#000000" fill-rule="nonzero" fill-opacity="1" transform="matrix(-1.00123 0 0 1 483.051 13.0736)"/><path d="M0 0 154.786 0 154.786 154.735 154.735 154.735" stroke="#000000" stroke-width="2.14909" stroke-linecap="butt" stroke-linejoin="miter" stroke-miterlimit="8" stroke-opacity="1" fill="none" fill-rule="evenodd" transform="matrix(1.83922e-16 1 1.00123 -1.83697e-16 350.372 15.4018)"/><path d="M0 0 137.155 137.155" stroke="#000000" stroke-width="1.61182" stroke-linecap="butt" stroke-linejoin="miter" stroke-miterlimit="8" stroke-dasharray="12.8945 4.83545" stroke-opacity="1" fill="none" fill-rule="evenodd" transform="matrix(1.00123 0 0 -1 350.91 170.645)"/><path d="M460.264 257.354C460.264 255.672 461.628 254.309 463.308 254.309 464.988 254.309 466.353 255.672 466.353 257.354 466.353 259.035 464.988 260.398 463.308 260.398 461.628 260.398 460.264 259.035 460.264 257.354Z" fill="#8BC145" fill-rule="evenodd" fill-opacity="1" transform="matrix(1.00123 0 0 1 -32.9931 -151.153)"/><path d="M479.964 240.161C479.964 238.48 481.328 237.116 483.008 237.116 484.688 237.116 486.053 238.48 486.053 240.161 486.053 241.842 484.688 243.205 483.008 243.205 481.328 243.205 479.964 241.842 479.964 240.161Z" fill="#8BC145" fill-rule="evenodd" fill-opacity="1" transform="matrix(1.00123 0 0 1 -32.9931 -151.153)"/><path d="M425.162 264.517C425.162 262.836 426.526 261.473 428.206 261.473 429.886 261.473 431.251 262.836 431.251 264.517 431.251 266.199 429.886 267.562 428.206 267.562 426.526 267.562 425.162 266.199 425.162 264.517Z" fill="#FFFF00" fill-rule="evenodd" fill-opacity="1" transform="matrix(1.00123 0 0 1 -32.9931 -151.153)"/><path d="M478.531 269.174C478.531 267.492 479.896 266.129 481.575 266.129 483.255 266.129 484.62 267.492 484.62 269.174 484.62 270.855 483.255 272.218 481.575 272.218 479.896 272.218 478.531 270.855 478.531 269.174Z" stroke="#8BC145" stroke-width="0.716364" stroke-linecap="butt" stroke-linejoin="miter" stroke-miterlimit="8" stroke-opacity="1" fill="#8BC145" fill-rule="evenodd" fill-opacity="1" transform="matrix(1.00123 0 0 1 -32.9931 -151.153)"/><path d="M470.651 208.999C470.651 207.318 472.016 205.955 473.695 205.955 475.375 205.955 476.74 207.318 476.74 208.999 476.74 210.68 475.375 212.044 473.695 212.044 472.016 212.044 470.651 210.68 470.651 208.999Z" fill="#FFFF00" fill-rule="evenodd" fill-opacity="1" transform="matrix(1.00123 0 0 1 -32.9931 -151.153)"/><path d="M438.415 247.325C438.415 245.643 439.779 244.28 441.459 244.28 443.139 244.28 444.504 245.643 444.504 247.325 444.504 249.006 443.139 250.369 441.459 250.369 439.779 250.369 438.415 249.006 438.415 247.325Z" fill="#8BC145" fill-rule="evenodd" fill-opacity="1" transform="matrix(1.00123 0 0 1 -32.9931 -151.153)"/><path d="M464.562 234.788C464.562 233.107 465.926 231.744 467.606 231.744 469.286 231.744 470.651 233.107 470.651 234.788 470.651 236.469 469.286 237.833 467.606 237.833 465.926 237.833 464.562 236.469 464.562 234.788Z" fill="#8BC145" fill-rule="evenodd" fill-opacity="1" transform="matrix(1.00123 0 0 1 -32.9931 -151.153)"/><path d="M425.162 217.237C425.162 215.556 426.526 214.193 428.206 214.193 429.886 214.193 431.251 215.556 431.251 217.237 431.251 218.919 429.886 220.282 428.206 220.282 426.526 220.282 425.162 218.919 425.162 217.237Z" fill="#FFFF00" fill-rule="evenodd" fill-opacity="1" transform="matrix(1.00123 0 0 1 -32.9931 -151.153)"/><path d="M453.458 238.012C453.458 236.331 454.823 234.967 456.503 234.967 458.183 234.967 459.547 236.331 459.547 238.012 459.547 239.693 458.183 241.056 456.503 241.056 454.823 241.056 453.458 239.693 453.458 238.012Z" fill="#8BC145" fill-rule="evenodd" fill-opacity="1" transform="matrix(1.00123 0 0 1 -32.9931 -151.153)"/><path d="M443.071 265.234C443.071 263.552 444.436 262.189 446.115 262.189 447.795 262.189 449.16 263.552 449.16 265.234 449.16 266.915 447.795 268.278 446.115 268.278 444.436 268.278 443.071 266.915 443.071 265.234Z" fill="#8BC145" fill-rule="evenodd" fill-opacity="1" transform="matrix(1.00123 0 0 1 -32.9931 -151.153)"/><path d="M0 0 114.315 114.315" stroke="#000000" stroke-width="1.07455" stroke-linecap="butt" stroke-linejoin="miter" stroke-miterlimit="8" stroke-dasharray="1.07455 1.07455" stroke-opacity="1" fill="none" fill-rule="evenodd" transform="matrix(1.00123 0 0 -1 350.91 131.328)"/><path d="M0 0 116.154 116.154" stroke="#000000" stroke-width="1.07455" stroke-linecap="butt" stroke-linejoin="miter" stroke-miterlimit="8" stroke-dasharray="1.07455 1.07455" stroke-opacity="1" fill="none" fill-rule="evenodd" transform="matrix(1.00123 0 0 -1 389.641 171.494)"/><text fill="#000000" fill-opacity="1" font-family="Cambria Math,Cambria Math_MSFontService,sans-serif" font-style="normal" font-variant="normal" font-weight="400" font-stretch="normal" font-size="36" text-anchor="start" direction="ltr" writing-mode="lr-tb" unicode-bidi="normal" text-decoration="none" transform="matrix(0.358621 0 0 0.358182 426.457 190)">ğ‘‡</text><text fill="#000000" fill-opacity="1" font-family="Cambria Math,Cambria Math_MSFontService,sans-serif" font-style="normal" font-variant="normal" font-weight="400" font-stretch="normal" font-size="26" text-anchor="start" direction="ltr" writing-mode="lr-tb" unicode-bidi="normal" text-decoration="none" transform="matrix(0.358621 0 0 0.358182 432.403 193)">ğ‘š</text><text fill="#000000" fill-opacity="1" font-family="Cambria Math,Cambria Math_MSFontService,sans-serif" font-style="normal" font-variant="normal" font-weight="400" font-stretch="normal" font-size="26" text-anchor="start" direction="ltr" writing-mode="lr-tb" unicode-bidi="normal" text-decoration="none" transform="matrix(0.358621 0 0 0.358182 434.86 186)">ğ‘£ğ‘ğ‘™</text><text fill="#000000" fill-opacity="1" font-family="Cambria Math,Cambria Math_MSFontService,sans-serif" font-style="normal" font-variant="normal" font-weight="400" font-stretch="normal" font-size="36" text-anchor="start" direction="ltr" writing-mode="lr-tb" unicode-bidi="normal" text-decoration="none" transform="matrix(0.358621 0 0 0.358182 302.773 90)">ğ‘‡</text><text fill="#000000" fill-opacity="1" font-family="Cambria Math,Cambria Math_MSFontService,sans-serif" font-style="normal" font-variant="normal" font-weight="400" font-stretch="normal" font-size="26" text-anchor="start" direction="ltr" writing-mode="lr-tb" unicode-bidi="normal" text-decoration="none" transform="matrix(0.358621 0 0 0.358182 309.096 93)">ğ‘š</text><text fill="#000000" fill-opacity="1" font-family="Cambria Math,Cambria Math_MSFontService,sans-serif" font-style="normal" font-variant="normal" font-weight="400" font-stretch="normal" font-size="26" text-anchor="start" direction="ltr" writing-mode="lr-tb" unicode-bidi="normal" text-decoration="none" transform="matrix(0.358621 0 0 0.358182 318.043 93)">,</text><text fill="#000000" fill-opacity="1" font-family="Cambria Math,Cambria Math_MSFontService,sans-serif" font-style="normal" font-variant="normal" font-weight="400" font-stretch="normal" font-size="26" text-anchor="start" direction="ltr" writing-mode="lr-tb" unicode-bidi="normal" text-decoration="none" transform="matrix(0.358621 0 0 0.358182 320.016 93)">ğ‘ğ‘Ÿğ‘’ğ‘‘</text><text fill="#000000" fill-opacity="1" font-family="Cambria Math,Cambria Math_MSFontService,sans-serif" font-style="normal" font-variant="normal" font-weight="400" font-stretch="normal" font-size="26" text-anchor="start" direction="ltr" writing-mode="lr-tb" unicode-bidi="normal" text-decoration="none" transform="matrix(0.358621 0 0 0.358182 311.176 85)">ğ‘£ğ‘ğ‘™</text><path d="M546.944 217.237C546.944 215.556 548.308 214.193 549.988 214.193 551.668 214.193 553.033 215.556 553.033 217.237 553.033 218.919 551.668 220.282 549.988 220.282 548.308 220.282 546.944 218.919 546.944 217.237Z" stroke="#FFFF00" stroke-width="0.716364" stroke-linecap="butt" stroke-linejoin="miter" stroke-miterlimit="8" stroke-opacity="1" fill="#FFFF00" fill-rule="evenodd" fill-opacity="1" transform="matrix(1.00123 0 0 1 -32.9931 -151.153)"/><path d="M546.944 231.206C546.944 229.525 548.308 228.162 549.988 228.162 551.668 228.162 553.033 229.525 553.033 231.206 553.033 232.888 551.668 234.251 549.988 234.251 548.308 234.251 546.944 232.888 546.944 231.206Z" fill="#8BC145" fill-rule="evenodd" fill-opacity="1" transform="matrix(1.00123 0 0 1 -32.9931 -151.153)"/><text fill="#000000" fill-opacity="1" font-family="Calibri,Calibri_MSFontService,sans-serif" font-style="normal" font-variant="normal" font-weight="400" font-stretch="normal" font-size="36" text-anchor="start" direction="ltr" writing-mode="lr-tb" unicode-bidi="normal" text-decoration="none" transform="matrix(0.358621 0 0 0.358182 525.168 71)">Predicted Outlier</text><text fill="#000000" fill-opacity="1" font-family="Calibri,Calibri_MSFontService,sans-serif" font-style="normal" font-variant="normal" font-weight="400" font-stretch="normal" font-size="36" text-anchor="start" direction="ltr" writing-mode="lr-tb" unicode-bidi="normal" text-decoration="none" transform="matrix(0.358621 0 0 0.358182 525.168 84)">Predicted Valid</text></g></g></svg>